HIERARCHY
ROOT Hips
{
    OFFSET 0.000000 0.000000 0.000000
    CHANNELS 6 Xposition Yposition Zposition Zrotation Xrotation Yrotation
    JOINT Spine
    {
        OFFSET -0.000000 0.076824 0.000000
        CHANNELS 3 Zrotation Xrotation Yrotation
        JOINT Spine1
        {
            OFFSET -0.000000 0.205639 0.000000
            CHANNELS 3 Zrotation Xrotation Yrotation
            JOINT Neck
            {
                OFFSET -0.000000 0.204794 0.018618
                CHANNELS 3 Zrotation Xrotation Yrotation
                JOINT Head
                {
                    OFFSET -0.000000 0.131164 -0.018738
                    CHANNELS 3 Zrotation Xrotation Yrotation
                    End Site
                    {
                        OFFSET -0.000000 0.187377 0.000000
                    }
                }
            }
            JOINT LeftShoulder
            {
                OFFSET 0.037892 0.189814 -0.002396
                CHANNELS 3 Zrotation Xrotation Yrotation
                JOINT LeftArm
                {
                    OFFSET 0.104721 0.000000 0.000000
                    CHANNELS 3 Zrotation Xrotation Yrotation
                    JOINT LeftForeArm
                    {
                        OFFSET 0.316555 0.000000 0.000000
                        CHANNELS 3 Zrotation Xrotation Yrotation
                        JOINT LeftHand
                        {
                            OFFSET 0.270628 0.000000 0.000000
                            CHANNELS 3 Zrotation Xrotation Yrotation
                            JOINT LeftHandThumb1
                            {
                                OFFSET 0.023422 -0.014053 0.046844
                                CHANNELS 3 Zrotation Xrotation Yrotation
                                JOINT LeftHandThumb2
                                {
                                    OFFSET 0.028107 0.000000 0.000000
                                    CHANNELS 3 Zrotation Xrotation Yrotation
                                    JOINT LeftHandThumb3
                                    {
                                        OFFSET 0.028107 0.000000 0.000000
                                        CHANNELS 3 Zrotation Xrotation Yrotation
                                        End Site
                                        {
                                            OFFSET 0.026333 0.000000 0.000000
                                        }
                                    }
                                }
                            }
                            JOINT LeftHandIndex1
                            {
                                OFFSET 0.084320 0.000000 0.032791
                                CHANNELS 3 Zrotation Xrotation Yrotation
                                JOINT LeftHandIndex2
                                {
                                    OFFSET 0.046844 0.000000 0.000000
                                    CHANNELS 3 Zrotation Xrotation Yrotation
                                    JOINT LeftHandIndex3
                                    {
                                        OFFSET 0.023422 0.000000 0.000000
                                        CHANNELS 3 Zrotation Xrotation Yrotation
                                        End Site
                                        {
                                            OFFSET 0.021944 0.000000 0.000000
                                        }
                                    }
                                }
                            }
                            JOINT LeftHandMiddle1
                            {
                                OFFSET 0.084320 0.000000 0.010868
                                CHANNELS 3 Zrotation Xrotation Yrotation
                                JOINT LeftHandMiddle2
                                {
                                    OFFSET 0.051529 0.000000 0.000000
                                    CHANNELS 3 Zrotation Xrotation Yrotation
                                    JOINT LeftHandMiddle3
                                    {
                                        OFFSET 0.028107 0.000000 0.000000
                                        CHANNELS 3 Zrotation Xrotation Yrotation
                                        End Site
                                        {
                                            OFFSET 0.026333 0.000000 0.000000
                                        }
                                    }
                                }
                            }
                            JOINT LeftHandRing1
                            {
                                OFFSET 0.079635 0.000000 -0.010868
                                CHANNELS 3 Zrotation Xrotation Yrotation
                                JOINT LeftHandRing2
                                {
                                    OFFSET 0.046844 0.000000 0.000000
                                    CHANNELS 3 Zrotation Xrotation Yrotation
                                    JOINT LeftHandRing3
                                    {
                                        OFFSET 0.023422 0.000000 0.000000
                                        CHANNELS 3 Zrotation Xrotation Yrotation
                                        End Site
                                        {
                                            OFFSET 0.021944 0.000000 0.000000
                                        }
                                    }
                                }
                            }
                            JOINT LeftHandPinky1
                            {
                                OFFSET 0.074951 0.000000 -0.032791
                                CHANNELS 3 Zrotation Xrotation Yrotation
                                JOINT LeftHandPinky2
                                {
                                    OFFSET 0.037475 0.000000 0.000000
                                    CHANNELS 3 Zrotation Xrotation Yrotation
                                    JOINT LeftHandPinky3
                                    {
                                        OFFSET 0.018738 0.000000 0.000000
                                        CHANNELS 3 Zrotation Xrotation Yrotation
                                        End Site
                                        {
                                            OFFSET 0.017555 0.000000 0.000000
                                        }
                                    }
                                }
                            }
                        }
                    }
                }
            }
            JOINT RightShoulder
            {
                OFFSET -0.036963 0.189814 -0.002396
                CHANNELS 3 Zrotation Xrotation Yrotation
                JOINT RightArm
                {
                    OFFSET -0.104721 0.000000 0.000000
                    CHANNELS 3 Zrotation Xrotation Yrotation
                    JOINT RightForeArm
                    {
                        OFFSET -0.316555 0.000000 0.000000
                        CHANNELS 3 Zrotation Xrotation Yrotation
                        JOINT RightHand
                        {
                            OFFSET -0.270628 0.000000 0.000000
                            CHANNELS 3 Zrotation Xrotation Yrotation
                            JOINT RightHandThumb1
                            {
                                OFFSET -0.023422 -0.014053 0.046844
                                CHANNELS 3 Zrotation Xrotation Yrotation
                                JOINT RightHandThumb2
                                {
                                    OFFSET -0.028107 0.000000 0.000000
                                    CHANNELS 3 Zrotation Xrotation Yrotation
                                    JOINT RightHandThumb3
                                    {
                                        OFFSET -0.028107 0.000000 0.000000
                                        CHANNELS 3 Zrotation Xrotation Yrotation
                                        End Site
                                        {
                                            OFFSET -0.026333 0.000000 0.000000
                                        }
                                    }
                                }
                            }
                            JOINT RightHandIndex1
                            {
                                OFFSET -0.084320 0.000000 0.032791
                                CHANNELS 3 Zrotation Xrotation Yrotation
                                JOINT RightHandIndex2
                                {
                                    OFFSET -0.046844 0.000000 0.000000
                                    CHANNELS 3 Zrotation Xrotation Yrotation
                                    JOINT RightHandIndex3
                                    {
                                        OFFSET -0.023422 0.000000 0.000000
                                        CHANNELS 3 Zrotation Xrotation Yrotation
                                        End Site
                                        {
                                            OFFSET -0.021944 0.000000 0.000000
                                        }
                                    }
                                }
                            }
                            JOINT RightHandMiddle1
                            {
                                OFFSET -0.084320 0.000000 0.010868
                                CHANNELS 3 Zrotation Xrotation Yrotation
                                JOINT RightHandMiddle2
                                {
                                    OFFSET -0.051529 0.000000 0.000000
                                    CHANNELS 3 Zrotation Xrotation Yrotation
                                    JOINT RightHandMiddle3
                                    {
                                        OFFSET -0.028107 0.000000 0.000000
                                        CHANNELS 3 Zrotation Xrotation Yrotation
                                        End Site
                                        {
                                            OFFSET -0.026333 0.000000 0.000000
                                        }
                                    }
                                }
                            }
                            JOINT RightHandRing1
                            {
                                OFFSET -0.079635 0.000000 -0.010868
                                CHANNELS 3 Zrotation Xrotation Yrotation
                                JOINT RightHandRing2
                                {
                                    OFFSET -0.046844 0.000000 0.000000
                                    CHANNELS 3 Zrotation Xrotation Yrotation
                                    JOINT RightHandRing3
                                    {
                                        OFFSET -0.023422 0.000000 0.000000
                                        CHANNELS 3 Zrotation Xrotation Yrotation
                                        End Site
                                        {
                                            OFFSET -0.021944 0.000000 0.000000
                                        }
                                    }
                                }
                            }
                            JOINT RightHandPinky1
                            {
                                OFFSET -0.074951 0.000000 -0.032791
                                CHANNELS 3 Zrotation Xrotation Yrotation
                                JOINT RightHandPinky2
                                {
                                    OFFSET -0.037475 0.000000 0.000000
                                    CHANNELS 3 Zrotation Xrotation Yrotation
                                    JOINT RightHandPinky3
                                    {
                                        OFFSET -0.018738 0.000000 0.000000
                                        CHANNELS 3 Zrotation Xrotation Yrotation
                                        End Site
                                        {
                                            OFFSET -0.017555 0.000000 0.000000
                                        }
                                    }
                                }
                            }
                        }
                    }
                }
            }
        }
    }
    JOINT LeftUpLeg
    {
        OFFSET 0.093688 0.000000 0.000000
        CHANNELS 3 Zrotation Xrotation Yrotation
        JOINT LeftLeg
        {
            OFFSET -0.000000 -0.377687 0.000000
            CHANNELS 3 Zrotation Xrotation Yrotation
            JOINT LeftFoot
            {
                OFFSET -0.000000 -0.399231 0.000000
                CHANNELS 3 Zrotation Xrotation Yrotation
                JOINT LeftToeBase
                {
                    OFFSET -0.000000 -0.060897 0.140533
                    CHANNELS 3 Zrotation Xrotation Yrotation
                    End Site
                    {
                        OFFSET -0.000000 0.000000 0.037475
                    }
                }
            }
        }
    }
    JOINT RightUpLeg
    {
        OFFSET -0.093688 0.000000 0.000000
        CHANNELS 3 Zrotation Xrotation Yrotation
        JOINT RightLeg
        {
            OFFSET -0.000000 -0.377687 0.000000
            CHANNELS 3 Zrotation Xrotation Yrotation
            JOINT RightFoot
            {
                OFFSET -0.000000 -0.399231 0.000000
                CHANNELS 3 Zrotation Xrotation Yrotation
                JOINT RightToeBase
                {
                    OFFSET -0.000000 -0.060897 0.140533
                    CHANNELS 3 Zrotation Xrotation Yrotation
                    End Site
                    {
                        OFFSET -0.000000 0.000000 0.037475
                    }
                }
            }
        }
    }
}
MOTION
Frames:    5
Frame Time:    0.040000
2.053029    0.802225    0.970554    5.273538    -5.658416    68.267334    -11.372903    -4.087753    -23.920748    -5.512992    9.362461    -7.387487    -5.631153    39.425835    16.095064    -0.987553    -17.925894    15.115790    12.900317    2.733172    -13.014518    -17.135895    22.244547    -57.521469    75.057144    -39.824993    -62.097408    14.650923    -8.112085    -22.155067    3.353473    1.729195    4.243567    -0.000000    0.000000    3.314726    -0.000000    0.000000    6.629452    -35.685066    0.000000    0.000000    -71.370132    0.000000    0.000000    -35.685066    0.000000    0.000000    -28.828213    0.000000    0.000000    -57.656433    0.000000    0.000000    -28.828213    0.000000    0.000000    -21.971361    0.000000    0.000000    -43.942722    0.000000    0.000000    -21.971361    0.000000    0.000000    -14.906721    0.000000    0.000000    -29.813442    0.000000    0.000000    -14.906721    0.000000    0.000000    -14.273661    4.337739    -11.573606    33.004627    -4.958456    -7.164518    -9.635192    -46.981655    130.751312    15.114128    -0.432282    15.819226    -4.223106    -6.481000    5.044590    0.000000    0.000000    0.000000    0.000000    0.000000    0.000000    0.000000    0.000000    0.000000    0.000000    0.000000    0.000000    0.000000    0.000000    0.000000    19.928492    0.000000    -0.000000    36.299995    0.000000    -0.000000    19.928492    0.000000    -0.000000    39.856991    0.000000    -0.000000    72.600006    0.000000    -0.000000    39.856991    0.000000    -0.000000    60.389366    0.000000    -0.000000    110.000000    0.000000    -0.000000    60.389366    0.000000    -0.000000    11.712485    -7.635817    24.149111    -11.757494    52.312431    15.857885    8.473027    -36.973030    9.368761    2.447470    6.454858    -5.745988    -6.867963    -25.212561    13.748228    15.868869    51.589397    -9.887187    -1.157865    -17.868040    -3.810809    0.748566    -4.099805    -3.173371    
2.081246    0.800682    0.981519    5.877292    -6.125396    72.069656    -11.550298    -4.198193    -24.811354    -6.261968    10.236469    -7.570839    -5.295675    40.293945    14.295520    0.417996    -16.405775    13.676939    12.601091    3.157118    -13.091233    -16.389629    23.273388    -59.514084    74.695717    -39.752769    -62.541077    14.291464    -7.433854    -22.129530    3.534447    1.799178    4.440606    -0.000000    0.000000    3.464812    -0.000000    0.000000    6.929625    -35.820404    0.000000    0.000000    -71.640816    0.000000    0.000000    -35.820404    0.000000    0.000000    -28.979849    0.000000    0.000000    -57.959717    0.000000    0.000000    -28.979849    0.000000    0.000000    -22.139305    0.000000    0.000000    -44.278599    0.000000    0.000000    -22.139305    0.000000    0.000000    -15.091461    0.000000    0.000000    -30.182922    0.000000    0.000000    -15.091461    0.000000    0.000000    -14.657228    4.108609    -11.469040    32.329487    -3.877745    -7.719168    -10.426258    -47.348579    129.662872    15.434265    0.536248    15.534489    -4.046092    -6.577005    5.285004    0.000000    0.000000    0.000000    0.000000    0.000000    0.000000    0.000000    0.000000    0.000000    0.000000    0.000000    0.000000    0.000000    0.000000    0.000000    23.632900    0.000000    -0.000000    36.299995    0.000000    -0.000000    23.632900    0.000000    -0.000000    47.265789    0.000000    -0.000000    72.600006    0.000000    -0.000000    47.265789    0.000000    -0.000000    71.614830    0.000000    -0.000000    110.000000    0.000000    -0.000000    71.614830    0.000000    -0.000000    12.115725    -5.591195    22.298069    -10.741696    52.621525    14.188421    7.479701    -37.977158    8.272261    2.642195    6.312245    -6.269555    -5.629935    -27.420734    15.868289    13.658783    47.239536    -5.307534    5.022842    -15.145370    2.996430    0.755159    -3.474658    -3.174450    
2.109965    0.800684    0.993098    6.451591    -6.303697    75.982643    -11.809234    -4.326583    -25.261715    -6.885791    10.989523    -7.613607    -4.560496    41.123402    12.157358    1.844975    -14.900225    11.968826    12.333712    3.690778    -13.134641    -15.088428    24.562809    -61.920559    75.033897    -39.813477    -62.603939    13.743279    -7.117972    -22.038179    2.379605    2.262705    4.134928    -0.000000    0.000000    3.275193    -0.000000    0.000000    6.550386    -36.164196    0.000000    0.000000    -72.328392    0.000000    0.000000    -36.164196    0.000000    0.000000    -29.227785    0.000000    0.000000    -58.455589    0.000000    0.000000    -29.227785    0.000000    0.000000    -22.291389    0.000000    0.000000    -44.582783    0.000000    0.000000    -22.291389    0.000000    0.000000    -15.144793    0.000000    0.000000    -30.289585    0.000000    0.000000    -15.144793    0.000000    0.000000    -15.050032    3.840459    -11.226540    31.701117    -2.775301    -8.103586    -11.777591    -47.604778    127.853455    15.437139    0.626066    15.549718    -3.965285    -6.602808    5.374136    0.000000    0.000000    0.000000    0.000000    0.000000    0.000000    0.000000    0.000000    0.000000    0.000000    0.000000    0.000000    0.000000    0.000000    0.000000    17.862150    0.000000    -0.000000    35.724293    0.000000    -0.000000    17.862150    0.000000    -0.000000    35.724289    0.000000    -0.000000    71.448586    0.000000    -0.000000    35.724289    0.000000    -0.000000    54.127720    0.000000    -0.000000    108.255424    0.000000    -0.000000    54.127720    0.000000    -0.000000    12.792955    -3.275274    20.995657    -9.432853    52.231834    11.557483    6.369699    -38.704460    7.081336    2.900600    6.426309    -6.904836    -5.511553    -28.523157    16.660019    11.521750    41.313225    -2.039000    10.066164    -10.652740    8.650878    0.804491    -3.884118    -3.421145    
2.138577    0.802054    1.003997    6.354260    -5.995041    80.444969    -12.055125    -4.885466    -25.535805    -7.244530    11.767097    -7.599349    -3.671802    41.610451    9.527539    3.366779    -13.646749    9.815430    11.919345    4.113842    -13.356607    -13.917675    25.517231    -64.441307    75.256546    -39.835594    -63.390282    13.422940    -6.731174    -21.161491    2.178720    2.326552    4.063937    -0.000000    0.000000    3.225801    -0.000000    0.000000    6.451601    -36.363800    0.000000    0.000000    -72.727585    0.000000    0.000000    -36.363800    0.000000    0.000000    -29.251665    0.000000    0.000000    -58.503311    0.000000    0.000000    -29.251665    0.000000    0.000000    -22.139524    0.000000    0.000000    -44.279045    0.000000    0.000000    -22.139524    0.000000    0.000000    -14.811864    0.000000    0.000000    -29.623728    0.000000    0.000000    -14.811864    0.000000    0.000000    -15.366424    3.381147    -11.233389    30.928545    -1.572679    -8.371287    -13.145792    -47.693508    125.922935    15.256414    1.400671    15.602632    -3.279202    -6.467238    5.722085    0.000000    0.000000    0.000000    0.000000    0.000000    0.000000    0.000000    0.000000    0.000000    0.000000    0.000000    0.000000    0.000000    0.000000    0.000000    16.405350    0.000000    -0.000000    32.810699    0.000000    -0.000000    16.405350    0.000000    -0.000000    32.810699    0.000000    -0.000000    65.621399    0.000000    -0.000000    32.810699    0.000000    -0.000000    49.713184    0.000000    -0.000000    99.426369    0.000000    -0.000000    49.713184    0.000000    -0.000000    13.057334    -1.777119    18.965172    -7.772623    51.026253    8.918923    5.304921    -38.979378    5.843128    2.892809    6.016977    -6.970589    -6.904381    -29.219584    15.544044    9.878338    34.856010    -1.862795    13.682156    -5.409177    12.174212    0.725971    -4.012300    -3.064523    
2.169007    0.804615    1.015770    6.231756    -5.662990    85.277145    -12.085264    -5.381983    -25.515800    -7.336916    12.597486    -7.513006    -2.710240    41.747608    6.668356    4.777746    -12.425640    7.406809    11.535795    4.484483    -13.308788    -12.533320    26.591047    -67.254509    75.349388    -39.976059    -64.094246    13.668792    -6.388182    -20.530157    1.694230    2.804160    4.241996    -0.000000    0.000000    3.392591    -0.000000    0.000000    6.785182    -35.446678    0.000000    0.000000    -70.893356    0.000000    0.000000    -35.446678    0.000000    0.000000    -28.572006    0.000000    0.000000    -57.144012    0.000000    0.000000    -28.572006    0.000000    0.000000    -21.697330    0.000000    0.000000    -43.394653    0.000000    0.000000    -21.697330    0.000000    0.000000    -14.614336    0.000000    0.000000    -29.228672    0.000000    0.000000    -14.614336    0.000000    0.000000    -15.473973    3.088769    -11.263181    29.792650    -0.436804    -8.047103    -13.496523    -47.178856    124.676636    15.399319    2.569911    15.174490    -3.523347    -6.745253    5.865887    0.000000    0.000000    0.000000    0.000000    0.000000    0.000000    0.000000    0.000000    0.000000    0.000000    0.000000    0.000000    0.000000    0.000000    0.000000    19.398115    0.000000    -0.000000    36.299995    0.000000    -0.000000    19.398115    0.000000    -0.000000    38.796234    0.000000    -0.000000    72.600006    0.000000    -0.000000    38.796234    0.000000    -0.000000    58.782154    0.000000    -0.000000    110.000000    0.000000    -0.000000    58.782154    0.000000    -0.000000    13.367163    0.166781    16.366045    -6.369634    48.541916    6.383363    4.733831    -39.310726    5.278608    2.900406    6.435098    -6.902517    -8.559795    -28.480371    14.856119    8.233803    28.324806    -2.178289    13.346513    -3.619044    12.078967    0.451502    -4.655138    -1.788304    
